# xmcd
#
# Track frame offsets: 
#        150
#        13646
#        25178
#        37985
#        58022
#        76982
#        98731
#        119914
#        140497
#        157573
#        176620
#        193970
#        210239
#        227427
#        243786
#        260807
#        279131
#        296403
#        314275
#        329825
#        344594
#
# Disc length: 4875 seconds
#
# Revision: 0
# Processed by: cddbd v1.5.1PL0 Copyright (c) Steve Scherf et al.
# Submitted via: ExactAudioCopy v0.95a3
#
DISCID=27130915
DTITLE=Shania Twain - The Platinum Collection
DYEAR=1999
DGENRE=Country
TTITLE0=What Made You Say That
TTITLE1=Dance With The One That Brought You
TTITLE2=You Lay A Whole Lot Of Love On Me
TTITLE3=Whose Bed Have Your Boots Been Under
TTITLE4=Any Man Of Mine
TTITLE5=The Woman In Me (Needs The Man In You)
TTITLE6=(If You're Not In It For Love) I'm Outta Here!
TTITLE7=You Win My Love
TTITLE8=No One Needs To Know
TTITLE9=Home Aint't Where His Heart Is (Anymore)
TTITLE10=God Bless The Child
TTITLE11=Love Gets Me Every Time
TTITLE12=Don't Be Stupid (You Knou I Love You)
TTITLE13=You're Still The One
TTITLE14=Honey, I'm Home
TTITLE15=From This Moment On
TTITLE16=That Don't Impress Me Much
TTITLE17=Man! I Feel Like A Woman!
TTITLE18=You've Got A Way
TTITLE19=Come On Over
TTITLE20=Rock This Country!
EXTD=
EXTT0=
EXTT1=
EXTT2=
EXTT3=
EXTT4=
EXTT5=
EXTT6=
EXTT7=
EXTT8=
EXTT9=
EXTT10=
EXTT11=
EXTT12=
EXTT13=
EXTT14=
EXTT15=
EXTT16=
EXTT17=
EXTT18=
EXTT19=
EXTT20=
PLAYORDER=
